<?xml version="1.0" encoding="UTF-8" standalone="no"?>
<!DOCTYPE svg PUBLIC "-//W3C//DTD SVG 1.1//EN" "http://www.w3.org/Graphics/SVG/1.1/DTD/svg11.dtd">
<svg width="100%" height="100%" viewBox="0 0 16 16" version="1.1" xmlns="http://www.w3.org/2000/svg" xmlns:xlink="http://www.w3.org/1999/xlink" xml:space="preserve" xmlns:serif="http://www.serif.com/" style="fill-rule:evenodd;clip-rule:evenodd;stroke-linejoin:round;stroke-miterlimit:2;">
    <path d="M3,9.5C2.177,9.5 1.5,8.823 1.5,8C1.5,7.177 2.177,6.5 3,6.5C3.823,6.5 4.5,7.177 4.5,8C4.5,8.823 3.823,9.5 3,9.5ZM8,9.5C7.177,9.5 6.5,8.823 6.5,8C6.5,7.177 7.177,6.5 8,6.5C8.823,6.5 9.5,7.177 9.5,8C9.5,8.823 8.823,9.5 8,9.5ZM13,9.5C12.177,9.5 11.5,8.823 11.5,8C11.5,7.177 12.177,6.5 13,6.5C13.823,6.5 14.5,7.177 14.5,8C14.5,8.823 13.823,9.5 13,9.5Z" style="fill:white;fill-rule:nonzero;"/>
</svg>
